<mxfile host="app.diagrams.net" modified="2024-07-24T03:23:11.563Z" agent="Mozilla/5.0 (Windows NT 10.0; Win64; x64) AppleWebKit/537.36 (KHTML, like Gecko) Chrome/126.0.0.0 Safari/537.36" etag="Z0FuI0Ma3i_6wboGInbE" version="24.7.3" type="device">
  <diagram name="Page-1" id="crNx2BH8-gXxpmaYC8U0">
    <mxGraphModel dx="794" dy="446" grid="1" gridSize="10" guides="1" tooltips="1" connect="1" arrows="1" fold="1" page="1" pageScale="1" pageWidth="850" pageHeight="1100" math="0" shadow="0">
      <root>
        <mxCell id="0" />
        <mxCell id="1" parent="0" />
        <mxCell id="pVqSBqb69MKl_GcOscas-117" style="edgeStyle=orthogonalEdgeStyle;rounded=0;orthogonalLoop=1;jettySize=auto;html=1;exitX=0.75;exitY=0;exitDx=0;exitDy=0;" parent="1" source="pVqSBqb69MKl_GcOscas-119" target="pVqSBqb69MKl_GcOscas-122" edge="1">
          <mxGeometry relative="1" as="geometry" />
        </mxCell>
        <mxCell id="pVqSBqb69MKl_GcOscas-118" style="edgeStyle=orthogonalEdgeStyle;rounded=0;orthogonalLoop=1;jettySize=auto;html=1;exitX=0;exitY=0.5;exitDx=0;exitDy=0;entryX=1;entryY=0;entryDx=0;entryDy=0;" parent="1" source="pVqSBqb69MKl_GcOscas-119" target="pVqSBqb69MKl_GcOscas-121" edge="1">
          <mxGeometry relative="1" as="geometry" />
        </mxCell>
        <mxCell id="pVqSBqb69MKl_GcOscas-119" value="USERS" style="rounded=0;whiteSpace=wrap;html=1;" parent="1" vertex="1">
          <mxGeometry x="160" y="190" width="150" height="60" as="geometry" />
        </mxCell>
        <mxCell id="pVqSBqb69MKl_GcOscas-120" value="authorization" style="ellipse;whiteSpace=wrap;html=1;" parent="1" vertex="1">
          <mxGeometry x="100" y="90" width="100" height="80" as="geometry" />
        </mxCell>
        <mxCell id="pVqSBqb69MKl_GcOscas-121" value="admin previliges" style="ellipse;whiteSpace=wrap;html=1;" parent="1" vertex="1">
          <mxGeometry x="50" y="230" width="90" height="80" as="geometry" />
        </mxCell>
        <mxCell id="pVqSBqb69MKl_GcOscas-122" value="profile" style="ellipse;whiteSpace=wrap;html=1;" parent="1" vertex="1">
          <mxGeometry x="260" y="80" width="120" height="80" as="geometry" />
        </mxCell>
        <mxCell id="pVqSBqb69MKl_GcOscas-123" style="edgeStyle=orthogonalEdgeStyle;rounded=0;orthogonalLoop=1;jettySize=auto;html=1;exitX=0.25;exitY=0;exitDx=0;exitDy=0;entryX=0.76;entryY=0.908;entryDx=0;entryDy=0;entryPerimeter=0;" parent="1" source="pVqSBqb69MKl_GcOscas-119" target="pVqSBqb69MKl_GcOscas-120" edge="1">
          <mxGeometry relative="1" as="geometry" />
        </mxCell>
        <mxCell id="pVqSBqb69MKl_GcOscas-124" style="edgeStyle=orthogonalEdgeStyle;rounded=0;orthogonalLoop=1;jettySize=auto;html=1;exitX=0.75;exitY=0;exitDx=0;exitDy=0;" parent="1" source="pVqSBqb69MKl_GcOscas-128" edge="1">
          <mxGeometry relative="1" as="geometry">
            <mxPoint x="750" y="91" as="targetPoint" />
          </mxGeometry>
        </mxCell>
        <mxCell id="pVqSBqb69MKl_GcOscas-125" style="edgeStyle=orthogonalEdgeStyle;rounded=0;orthogonalLoop=1;jettySize=auto;html=1;exitX=0;exitY=0.5;exitDx=0;exitDy=0;entryX=1;entryY=0;entryDx=0;entryDy=0;" parent="1" source="pVqSBqb69MKl_GcOscas-128" target="pVqSBqb69MKl_GcOscas-130" edge="1">
          <mxGeometry relative="1" as="geometry" />
        </mxCell>
        <mxCell id="pVqSBqb69MKl_GcOscas-126" style="edgeStyle=orthogonalEdgeStyle;rounded=0;orthogonalLoop=1;jettySize=auto;html=1;exitX=0.5;exitY=1;exitDx=0;exitDy=0;entryX=0.5;entryY=0;entryDx=0;entryDy=0;" parent="1" source="pVqSBqb69MKl_GcOscas-128" target="pVqSBqb69MKl_GcOscas-149" edge="1">
          <mxGeometry relative="1" as="geometry" />
        </mxCell>
        <mxCell id="pVqSBqb69MKl_GcOscas-127" style="edgeStyle=orthogonalEdgeStyle;rounded=0;orthogonalLoop=1;jettySize=auto;html=1;exitX=1;exitY=0.5;exitDx=0;exitDy=0;entryX=0.5;entryY=0;entryDx=0;entryDy=0;" parent="1" source="pVqSBqb69MKl_GcOscas-128" target="pVqSBqb69MKl_GcOscas-150" edge="1">
          <mxGeometry relative="1" as="geometry" />
        </mxCell>
        <mxCell id="pVqSBqb69MKl_GcOscas-128" value="Profile" style="rounded=0;whiteSpace=wrap;html=1;" parent="1" vertex="1">
          <mxGeometry x="590" y="121" width="150" height="60" as="geometry" />
        </mxCell>
        <mxCell id="pVqSBqb69MKl_GcOscas-129" value="user_name" style="ellipse;whiteSpace=wrap;html=1;" parent="1" vertex="1">
          <mxGeometry x="530" y="21" width="100" height="80" as="geometry" />
        </mxCell>
        <mxCell id="pVqSBqb69MKl_GcOscas-130" value="address" style="ellipse;whiteSpace=wrap;html=1;" parent="1" vertex="1">
          <mxGeometry x="490" y="201" width="90" height="80" as="geometry" />
        </mxCell>
        <mxCell id="pVqSBqb69MKl_GcOscas-131" value="email_id" style="ellipse;whiteSpace=wrap;html=1;" parent="1" vertex="1">
          <mxGeometry x="690" y="11" width="120" height="80" as="geometry" />
        </mxCell>
        <mxCell id="pVqSBqb69MKl_GcOscas-132" style="edgeStyle=orthogonalEdgeStyle;rounded=0;orthogonalLoop=1;jettySize=auto;html=1;exitX=0.25;exitY=0;exitDx=0;exitDy=0;entryX=0.76;entryY=0.908;entryDx=0;entryDy=0;entryPerimeter=0;" parent="1" source="pVqSBqb69MKl_GcOscas-128" target="pVqSBqb69MKl_GcOscas-129" edge="1">
          <mxGeometry relative="1" as="geometry" />
        </mxCell>
        <mxCell id="pVqSBqb69MKl_GcOscas-133" style="edgeStyle=orthogonalEdgeStyle;rounded=0;orthogonalLoop=1;jettySize=auto;html=1;exitX=0.75;exitY=0;exitDx=0;exitDy=0;" parent="1" source="pVqSBqb69MKl_GcOscas-135" target="pVqSBqb69MKl_GcOscas-138" edge="1">
          <mxGeometry relative="1" as="geometry" />
        </mxCell>
        <mxCell id="pVqSBqb69MKl_GcOscas-134" style="edgeStyle=orthogonalEdgeStyle;rounded=0;orthogonalLoop=1;jettySize=auto;html=1;exitX=0;exitY=0.5;exitDx=0;exitDy=0;entryX=1;entryY=0;entryDx=0;entryDy=0;" parent="1" source="pVqSBqb69MKl_GcOscas-135" target="pVqSBqb69MKl_GcOscas-137" edge="1">
          <mxGeometry relative="1" as="geometry" />
        </mxCell>
        <mxCell id="pVqSBqb69MKl_GcOscas-135" value="CART" style="rounded=0;whiteSpace=wrap;html=1;" parent="1" vertex="1">
          <mxGeometry x="170" y="550" width="150" height="60" as="geometry" />
        </mxCell>
        <mxCell id="pVqSBqb69MKl_GcOscas-136" value="no_of_products" style="ellipse;whiteSpace=wrap;html=1;" parent="1" vertex="1">
          <mxGeometry x="110" y="450" width="100" height="80" as="geometry" />
        </mxCell>
        <mxCell id="pVqSBqb69MKl_GcOscas-137" value="total_price" style="ellipse;whiteSpace=wrap;html=1;" parent="1" vertex="1">
          <mxGeometry x="60" y="590" width="90" height="80" as="geometry" />
        </mxCell>
        <mxCell id="pVqSBqb69MKl_GcOscas-138" value="cart_id" style="ellipse;whiteSpace=wrap;html=1;" parent="1" vertex="1">
          <mxGeometry x="280" y="420" width="120" height="80" as="geometry" />
        </mxCell>
        <mxCell id="pVqSBqb69MKl_GcOscas-139" style="edgeStyle=orthogonalEdgeStyle;rounded=0;orthogonalLoop=1;jettySize=auto;html=1;exitX=0.25;exitY=0;exitDx=0;exitDy=0;entryX=0.76;entryY=0.908;entryDx=0;entryDy=0;entryPerimeter=0;" parent="1" source="pVqSBqb69MKl_GcOscas-135" target="pVqSBqb69MKl_GcOscas-136" edge="1">
          <mxGeometry relative="1" as="geometry" />
        </mxCell>
        <mxCell id="pVqSBqb69MKl_GcOscas-140" style="edgeStyle=orthogonalEdgeStyle;rounded=0;orthogonalLoop=1;jettySize=auto;html=1;exitX=0.75;exitY=0;exitDx=0;exitDy=0;" parent="1" source="pVqSBqb69MKl_GcOscas-144" target="pVqSBqb69MKl_GcOscas-147" edge="1">
          <mxGeometry relative="1" as="geometry" />
        </mxCell>
        <mxCell id="pVqSBqb69MKl_GcOscas-141" style="edgeStyle=orthogonalEdgeStyle;rounded=0;orthogonalLoop=1;jettySize=auto;html=1;exitX=1;exitY=0.5;exitDx=0;exitDy=0;" parent="1" source="pVqSBqb69MKl_GcOscas-144" target="pVqSBqb69MKl_GcOscas-152" edge="1">
          <mxGeometry relative="1" as="geometry" />
        </mxCell>
        <mxCell id="pVqSBqb69MKl_GcOscas-142" style="edgeStyle=orthogonalEdgeStyle;rounded=0;orthogonalLoop=1;jettySize=auto;html=1;exitX=0;exitY=0.75;exitDx=0;exitDy=0;" parent="1" source="pVqSBqb69MKl_GcOscas-144" edge="1">
          <mxGeometry relative="1" as="geometry">
            <mxPoint x="590" y="732" as="targetPoint" />
          </mxGeometry>
        </mxCell>
        <mxCell id="pVqSBqb69MKl_GcOscas-143" style="edgeStyle=orthogonalEdgeStyle;rounded=0;orthogonalLoop=1;jettySize=auto;html=1;exitX=0;exitY=0.75;exitDx=0;exitDy=0;entryX=0.5;entryY=0;entryDx=0;entryDy=0;" parent="1" source="pVqSBqb69MKl_GcOscas-144" target="pVqSBqb69MKl_GcOscas-146" edge="1">
          <mxGeometry relative="1" as="geometry" />
        </mxCell>
        <mxCell id="pVqSBqb69MKl_GcOscas-144" value="Products in cart" style="rounded=0;whiteSpace=wrap;html=1;" parent="1" vertex="1">
          <mxGeometry x="610" y="687" width="150" height="60" as="geometry" />
        </mxCell>
        <mxCell id="pVqSBqb69MKl_GcOscas-145" value="product_name" style="ellipse;whiteSpace=wrap;html=1;" parent="1" vertex="1">
          <mxGeometry x="550" y="587" width="100" height="80" as="geometry" />
        </mxCell>
        <mxCell id="pVqSBqb69MKl_GcOscas-146" value="information" style="ellipse;whiteSpace=wrap;html=1;" parent="1" vertex="1">
          <mxGeometry x="540" y="787" width="90" height="80" as="geometry" />
        </mxCell>
        <mxCell id="pVqSBqb69MKl_GcOscas-147" value="product_id" style="ellipse;whiteSpace=wrap;html=1;" parent="1" vertex="1">
          <mxGeometry x="670" y="547" width="120" height="80" as="geometry" />
        </mxCell>
        <mxCell id="pVqSBqb69MKl_GcOscas-148" style="edgeStyle=orthogonalEdgeStyle;rounded=0;orthogonalLoop=1;jettySize=auto;html=1;exitX=0.25;exitY=0;exitDx=0;exitDy=0;entryX=0.76;entryY=0.908;entryDx=0;entryDy=0;entryPerimeter=0;" parent="1" source="pVqSBqb69MKl_GcOscas-144" target="pVqSBqb69MKl_GcOscas-145" edge="1">
          <mxGeometry relative="1" as="geometry" />
        </mxCell>
        <mxCell id="pVqSBqb69MKl_GcOscas-149" value="contact_no" style="ellipse;whiteSpace=wrap;html=1;" parent="1" vertex="1">
          <mxGeometry x="605" y="221" width="105" height="50" as="geometry" />
        </mxCell>
        <mxCell id="pVqSBqb69MKl_GcOscas-150" value="date_of_birth" style="ellipse;whiteSpace=wrap;html=1;" parent="1" vertex="1">
          <mxGeometry x="780" y="161" width="120" height="80" as="geometry" />
        </mxCell>
        <mxCell id="pVqSBqb69MKl_GcOscas-151" value="price" style="ellipse;whiteSpace=wrap;html=1;" parent="1" vertex="1">
          <mxGeometry x="690" y="807" width="110" height="80" as="geometry" />
        </mxCell>
        <mxCell id="pVqSBqb69MKl_GcOscas-152" value="product_review" style="ellipse;whiteSpace=wrap;html=1;" parent="1" vertex="1">
          <mxGeometry x="860" y="677" width="120" height="80" as="geometry" />
        </mxCell>
        <mxCell id="pVqSBqb69MKl_GcOscas-153" style="edgeStyle=orthogonalEdgeStyle;rounded=0;orthogonalLoop=1;jettySize=auto;html=1;exitX=0.5;exitY=1;exitDx=0;exitDy=0;" parent="1" source="pVqSBqb69MKl_GcOscas-154" target="pVqSBqb69MKl_GcOscas-135" edge="1">
          <mxGeometry relative="1" as="geometry" />
        </mxCell>
        <mxCell id="pVqSBqb69MKl_GcOscas-154" value="one to one" style="rhombus;whiteSpace=wrap;html=1;" parent="1" vertex="1">
          <mxGeometry x="190" y="320" width="80" height="80" as="geometry" />
        </mxCell>
        <mxCell id="pVqSBqb69MKl_GcOscas-155" value="" style="endArrow=classic;html=1;rounded=0;exitX=0.5;exitY=1;exitDx=0;exitDy=0;entryX=0.5;entryY=0;entryDx=0;entryDy=0;" parent="1" source="pVqSBqb69MKl_GcOscas-119" target="pVqSBqb69MKl_GcOscas-154" edge="1">
          <mxGeometry width="50" height="50" relative="1" as="geometry">
            <mxPoint x="570" y="380" as="sourcePoint" />
            <mxPoint x="620" y="330" as="targetPoint" />
          </mxGeometry>
        </mxCell>
        <mxCell id="pVqSBqb69MKl_GcOscas-156" value="" style="endArrow=classic;html=1;rounded=0;exitX=0.75;exitY=1;exitDx=0;exitDy=0;entryX=0.5;entryY=0;entryDx=0;entryDy=0;" parent="1" source="pVqSBqb69MKl_GcOscas-144" target="pVqSBqb69MKl_GcOscas-151" edge="1">
          <mxGeometry width="50" height="50" relative="1" as="geometry">
            <mxPoint x="530" y="767" as="sourcePoint" />
            <mxPoint x="580" y="717" as="targetPoint" />
          </mxGeometry>
        </mxCell>
        <mxCell id="pVqSBqb69MKl_GcOscas-157" style="edgeStyle=orthogonalEdgeStyle;rounded=0;orthogonalLoop=1;jettySize=auto;html=1;exitX=0.75;exitY=0;exitDx=0;exitDy=0;" parent="1" source="pVqSBqb69MKl_GcOscas-161" target="pVqSBqb69MKl_GcOscas-164" edge="1">
          <mxGeometry relative="1" as="geometry" />
        </mxCell>
        <mxCell id="pVqSBqb69MKl_GcOscas-158" style="edgeStyle=orthogonalEdgeStyle;rounded=0;orthogonalLoop=1;jettySize=auto;html=1;exitX=1;exitY=0.5;exitDx=0;exitDy=0;" parent="1" source="pVqSBqb69MKl_GcOscas-161" target="pVqSBqb69MKl_GcOscas-167" edge="1">
          <mxGeometry relative="1" as="geometry" />
        </mxCell>
        <mxCell id="pVqSBqb69MKl_GcOscas-159" style="edgeStyle=orthogonalEdgeStyle;rounded=0;orthogonalLoop=1;jettySize=auto;html=1;exitX=0;exitY=0.75;exitDx=0;exitDy=0;" parent="1" source="pVqSBqb69MKl_GcOscas-161" edge="1">
          <mxGeometry relative="1" as="geometry">
            <mxPoint x="1091" y="426" as="targetPoint" />
          </mxGeometry>
        </mxCell>
        <mxCell id="pVqSBqb69MKl_GcOscas-160" style="edgeStyle=orthogonalEdgeStyle;rounded=0;orthogonalLoop=1;jettySize=auto;html=1;exitX=0;exitY=0.75;exitDx=0;exitDy=0;entryX=0.5;entryY=0;entryDx=0;entryDy=0;" parent="1" source="pVqSBqb69MKl_GcOscas-161" target="pVqSBqb69MKl_GcOscas-163" edge="1">
          <mxGeometry relative="1" as="geometry" />
        </mxCell>
        <mxCell id="pVqSBqb69MKl_GcOscas-161" value="Products" style="rounded=0;whiteSpace=wrap;html=1;" parent="1" vertex="1">
          <mxGeometry x="1111" y="381" width="150" height="60" as="geometry" />
        </mxCell>
        <mxCell id="pVqSBqb69MKl_GcOscas-162" value="product_name" style="ellipse;whiteSpace=wrap;html=1;" parent="1" vertex="1">
          <mxGeometry x="1051" y="281" width="100" height="80" as="geometry" />
        </mxCell>
        <mxCell id="pVqSBqb69MKl_GcOscas-163" value="information" style="ellipse;whiteSpace=wrap;html=1;" parent="1" vertex="1">
          <mxGeometry x="1041" y="481" width="90" height="80" as="geometry" />
        </mxCell>
        <mxCell id="pVqSBqb69MKl_GcOscas-164" value="product_id" style="ellipse;whiteSpace=wrap;html=1;" parent="1" vertex="1">
          <mxGeometry x="1171" y="241" width="120" height="80" as="geometry" />
        </mxCell>
        <mxCell id="pVqSBqb69MKl_GcOscas-165" style="edgeStyle=orthogonalEdgeStyle;rounded=0;orthogonalLoop=1;jettySize=auto;html=1;exitX=0.25;exitY=0;exitDx=0;exitDy=0;entryX=0.76;entryY=0.908;entryDx=0;entryDy=0;entryPerimeter=0;" parent="1" source="pVqSBqb69MKl_GcOscas-161" target="pVqSBqb69MKl_GcOscas-162" edge="1">
          <mxGeometry relative="1" as="geometry" />
        </mxCell>
        <mxCell id="pVqSBqb69MKl_GcOscas-166" value="price" style="ellipse;whiteSpace=wrap;html=1;" parent="1" vertex="1">
          <mxGeometry x="1200" y="500" width="110" height="80" as="geometry" />
        </mxCell>
        <mxCell id="pVqSBqb69MKl_GcOscas-167" value="product_review" style="ellipse;whiteSpace=wrap;html=1;" parent="1" vertex="1">
          <mxGeometry x="1361" y="371" width="120" height="80" as="geometry" />
        </mxCell>
        <mxCell id="pVqSBqb69MKl_GcOscas-168" value="" style="endArrow=classic;html=1;rounded=0;exitX=0.75;exitY=1;exitDx=0;exitDy=0;entryX=0.5;entryY=0;entryDx=0;entryDy=0;" parent="1" source="pVqSBqb69MKl_GcOscas-161" edge="1">
          <mxGeometry width="50" height="50" relative="1" as="geometry">
            <mxPoint x="1031" y="461" as="sourcePoint" />
            <mxPoint x="1246" y="501" as="targetPoint" />
          </mxGeometry>
        </mxCell>
        <mxCell id="pVqSBqb69MKl_GcOscas-169" value="" style="endArrow=classic;html=1;rounded=0;exitX=0;exitY=0.25;exitDx=0;exitDy=0;entryX=1;entryY=0;entryDx=0;entryDy=0;" parent="1" source="pVqSBqb69MKl_GcOscas-161" target="pVqSBqb69MKl_GcOscas-135" edge="1">
          <mxGeometry width="50" height="50" relative="1" as="geometry">
            <mxPoint x="600" y="510" as="sourcePoint" />
            <mxPoint x="650" y="460" as="targetPoint" />
          </mxGeometry>
        </mxCell>
        <mxCell id="pVqSBqb69MKl_GcOscas-170" value="Orders" style="rounded=1;whiteSpace=wrap;html=1;" parent="1" vertex="1">
          <mxGeometry x="748" y="1026" width="120" height="60" as="geometry" />
        </mxCell>
        <mxCell id="pVqSBqb69MKl_GcOscas-171" value="Payments" style="ellipse;whiteSpace=wrap;html=1;" parent="1" vertex="1">
          <mxGeometry x="998" y="1006" width="120" height="80" as="geometry" />
        </mxCell>
        <mxCell id="pVqSBqb69MKl_GcOscas-172" value="History" style="ellipse;whiteSpace=wrap;html=1;" parent="1" vertex="1">
          <mxGeometry x="888" y="1169" width="120" height="80" as="geometry" />
        </mxCell>
        <mxCell id="pVqSBqb69MKl_GcOscas-173" value="Fulfilment" style="ellipse;whiteSpace=wrap;html=1;" parent="1" vertex="1">
          <mxGeometry x="685" y="1179" width="120" height="80" as="geometry" />
        </mxCell>
        <mxCell id="pVqSBqb69MKl_GcOscas-174" value="" style="endArrow=classic;html=1;rounded=0;entryX=0;entryY=0.5;entryDx=0;entryDy=0;exitX=1;exitY=0.5;exitDx=0;exitDy=0;" parent="1" source="pVqSBqb69MKl_GcOscas-170" target="pVqSBqb69MKl_GcOscas-171" edge="1">
          <mxGeometry width="50" height="50" relative="1" as="geometry">
            <mxPoint x="538" y="1049" as="sourcePoint" />
            <mxPoint x="588" y="999" as="targetPoint" />
          </mxGeometry>
        </mxCell>
        <mxCell id="pVqSBqb69MKl_GcOscas-175" style="edgeStyle=orthogonalEdgeStyle;rounded=0;orthogonalLoop=1;jettySize=auto;html=1;entryX=0.761;entryY=0.086;entryDx=0;entryDy=0;entryPerimeter=0;" parent="1" source="pVqSBqb69MKl_GcOscas-170" edge="1">
          <mxGeometry relative="1" as="geometry">
            <mxPoint x="739.3200000000002" y="1185.88" as="targetPoint" />
          </mxGeometry>
        </mxCell>
        <mxCell id="pVqSBqb69MKl_GcOscas-176" style="edgeStyle=orthogonalEdgeStyle;rounded=0;orthogonalLoop=1;jettySize=auto;html=1;entryX=0.361;entryY=-0.005;entryDx=0;entryDy=0;entryPerimeter=0;" parent="1" source="pVqSBqb69MKl_GcOscas-170" target="pVqSBqb69MKl_GcOscas-172" edge="1">
          <mxGeometry relative="1" as="geometry" />
        </mxCell>
        <mxCell id="pVqSBqb69MKl_GcOscas-177" value="" style="edgeStyle=entityRelationEdgeStyle;fontSize=12;html=1;endArrow=ERmandOne;startArrow=ERmandOne;rounded=0;entryX=0;entryY=0.25;entryDx=0;entryDy=0;" parent="1" edge="1">
          <mxGeometry width="100" height="100" relative="1" as="geometry">
            <mxPoint x="310" y="221" as="sourcePoint" />
            <mxPoint x="590" y="137" as="targetPoint" />
            <Array as="points">
              <mxPoint x="590" y="131" />
            </Array>
          </mxGeometry>
        </mxCell>
        <mxCell id="pVqSBqb69MKl_GcOscas-178" value="One To One" style="text;align=center;fontStyle=1;verticalAlign=middle;spacingLeft=3;spacingRight=3;strokeColor=none;rotatable=0;points=[[0,0.5],[1,0.5]];portConstraint=eastwest;html=1;" parent="1" vertex="1">
          <mxGeometry x="384" y="215" width="80" height="26" as="geometry" />
        </mxCell>
        <mxCell id="pVqSBqb69MKl_GcOscas-179" value="" style="edgeStyle=entityRelationEdgeStyle;fontSize=12;html=1;endArrow=ERmany;startArrow=ERmany;rounded=0;entryX=-0.019;entryY=0.383;entryDx=0;entryDy=0;entryPerimeter=0;" parent="1" target="pVqSBqb69MKl_GcOscas-144" edge="1">
          <mxGeometry width="100" height="100" relative="1" as="geometry">
            <mxPoint x="320" y="590" as="sourcePoint" />
            <mxPoint x="420" y="490" as="targetPoint" />
          </mxGeometry>
        </mxCell>
        <mxCell id="pVqSBqb69MKl_GcOscas-180" value="Many To Many" style="text;align=center;fontStyle=1;verticalAlign=middle;spacingLeft=3;spacingRight=3;strokeColor=none;rotatable=0;points=[[0,0.5],[1,0.5]];portConstraint=eastwest;html=1;" parent="1" vertex="1">
          <mxGeometry x="410" y="595" width="80" height="26" as="geometry" />
        </mxCell>
        <mxCell id="pVqSBqb69MKl_GcOscas-181" value="" style="edgeStyle=entityRelationEdgeStyle;fontSize=12;html=1;endArrow=ERmandOne;startArrow=ERmandOne;rounded=0;entryX=0.859;entryY=1.15;entryDx=0;entryDy=0;entryPerimeter=0;exitX=0;exitY=0.5;exitDx=0;exitDy=0;" parent="1" source="pVqSBqb69MKl_GcOscas-170" target="pVqSBqb69MKl_GcOscas-135" edge="1">
          <mxGeometry width="100" height="100" relative="1" as="geometry">
            <mxPoint x="240" y="620" as="sourcePoint" />
            <mxPoint x="540" y="962.4615009014423" as="targetPoint" />
            <Array as="points">
              <mxPoint x="530" y="537" />
              <mxPoint x="330" y="860" />
              <mxPoint x="280" y="800" />
              <mxPoint x="210" y="800" />
            </Array>
          </mxGeometry>
        </mxCell>
        <mxCell id="pVqSBqb69MKl_GcOscas-182" value="" style="edgeStyle=entityRelationEdgeStyle;fontSize=12;html=1;endArrow=ERmandOne;startArrow=ERmandOne;rounded=0;entryX=0.632;entryY=0.988;entryDx=0;entryDy=0;entryPerimeter=0;exitX=0.5;exitY=0;exitDx=0;exitDy=0;" parent="1" source="pVqSBqb69MKl_GcOscas-170" target="pVqSBqb69MKl_GcOscas-161" edge="1">
          <mxGeometry width="100" height="100" relative="1" as="geometry">
            <mxPoint x="758" y="1066" as="sourcePoint" />
            <mxPoint x="309" y="629" as="targetPoint" />
            <Array as="points">
              <mxPoint x="540" y="547" />
              <mxPoint x="340" y="870" />
              <mxPoint x="290" y="810" />
              <mxPoint x="220" y="810" />
            </Array>
          </mxGeometry>
        </mxCell>
        <mxCell id="pVqSBqb69MKl_GcOscas-183" value="One To One" style="text;align=center;fontStyle=1;verticalAlign=middle;spacingLeft=3;spacingRight=3;strokeColor=none;rotatable=0;points=[[0,0.5],[1,0.5]];portConstraint=eastwest;html=1;" parent="1" vertex="1">
          <mxGeometry x="380" y="787" width="80" height="26" as="geometry" />
        </mxCell>
        <mxCell id="pVqSBqb69MKl_GcOscas-184" value="One To One" style="text;align=center;fontStyle=1;verticalAlign=middle;spacingLeft=3;spacingRight=3;strokeColor=none;rotatable=0;points=[[0,0.5],[1,0.5]];portConstraint=eastwest;html=1;" parent="1" vertex="1">
          <mxGeometry x="1051" y="670" width="80" height="26" as="geometry" />
        </mxCell>
      </root>
    </mxGraphModel>
  </diagram>
</mxfile>
